<svg width="24" height="24" viewBox="0 0 24 24" fill="none" xmlns="http://www.w3.org/2000/svg">
<rect width="24" height="24" rx="12" fill="black"/>
<path fill-rule="evenodd" clip-rule="evenodd" d="M12 17.8813C15.935 17.8813 19.125 14.9698 19.125 11.3782C19.125 7.78657 15.935 4.875 12 4.875C8.06497 4.875 4.875 7.78657 4.875 11.3782C4.875 13.4935 5.98153 15.3729 7.6951 16.5606V19.8751L10.5435 17.7454C11.0137 17.8345 11.5009 17.8813 12 17.8813Z" fill="white"/>
<path d="M12.4558 10.8164H11.4357C11.1686 9.8356 10.3728 9.71833 9.9188 9.71833C9.46481 9.71833 9.06423 9.90489 8.71172 10.278C8.35921 10.6512 8.29512 11.2215 8.35921 11.6906C8.4233 12.1597 8.74911 12.5008 8.93605 12.6661C9.12298 12.8313 9.76391 13.1885 10.517 12.9326C11.1195 12.7279 11.3805 12.2112 11.4357 11.9784H12.4398C12.333 12.6394 11.9003 13.2524 11.409 13.5882C10.9176 13.9241 10.2072 14.068 9.55561 13.9614C8.904 13.8548 8.23636 13.5296 7.84112 12.9486C7.44588 12.3676 7.17349 11.5893 7.4352 10.6405C7.69691 9.69167 8.38057 9.26524 8.62092 9.11065C8.86127 8.95607 9.95619 8.44967 11.1366 9.02003C12.0809 9.47632 12.4095 10.4077 12.4558 10.8164Z" fill="black"/>
<path d="M14.229 8.78025H13.2943L13.2997 13.8975H14.229V12.3303C14.2112 12.1153 14.2098 11.6299 14.3465 11.4082C14.5174 11.131 14.8272 10.9871 15.2812 11.099C15.6444 11.1886 15.7387 11.5841 15.7405 11.7706V13.8975H16.6645V11.9572C16.6645 11.3549 16.6325 11.163 16.5096 10.9284C16.3868 10.6939 16.0824 10.2355 15.4254 10.1982C14.7677 10.1608 14.3786 10.4274 14.229 10.7046V8.78025Z" fill="black"/>
</svg>
