<svg width="24" height="24" viewBox="0 0 24 24" fill="none" xmlns="http://www.w3.org/2000/svg">
<rect width="24" height="24" rx="12" fill="black"/>
<path d="M12 7.08434C13.5904 7.08434 13.8072 7.08434 14.4578 7.08434C15.0361 7.08434 15.3253 7.22892 15.5422 7.30121C15.8313 7.44578 16.0482 7.51807 16.2651 7.73494C16.4819 7.95181 16.6265 8.16868 16.6988 8.45783C16.7711 8.6747 16.8434 8.96386 16.9157 9.54217C16.9157 10.1928 16.9157 10.3373 16.9157 12C16.9157 13.6627 16.9157 13.8072 16.9157 14.4578C16.9157 15.0361 16.7711 15.3253 16.6988 15.5422C16.5542 15.8313 16.4819 16.0482 16.2651 16.2651C16.0482 16.4819 15.8313 16.6265 15.5422 16.6988C15.3253 16.7711 15.0361 16.8434 14.4578 16.9157C13.8072 16.9157 13.6627 16.9157 12 16.9157C10.3373 16.9157 10.1928 16.9157 9.54217 16.9157C8.96386 16.9157 8.6747 16.7711 8.45783 16.6988C8.16868 16.5542 7.95181 16.4819 7.73494 16.2651C7.51807 16.0482 7.37349 15.8313 7.30121 15.5422C7.22892 15.3253 7.15663 15.0361 7.08434 14.4578C7.08434 13.8072 7.08434 13.6627 7.08434 12C7.08434 10.3373 7.08434 10.1928 7.08434 9.54217C7.08434 8.96386 7.22892 8.6747 7.30121 8.45783C7.44578 8.16868 7.51807 7.95181 7.73494 7.73494C7.95181 7.51807 8.16868 7.37349 8.45783 7.30121C8.6747 7.22892 8.96386 7.15663 9.54217 7.08434C10.1928 7.08434 10.4096 7.08434 12 7.08434ZM12 6C10.3373 6 10.1928 6 9.54217 6C8.89157 6 8.45783 6.14458 8.09639 6.28916C7.73494 6.43374 7.37349 6.6506 7.01205 7.01205C6.6506 7.37349 6.50602 7.66265 6.28916 8.09639C6.14458 8.45783 6.07229 8.89157 6 9.54217C6 10.1928 6 10.4096 6 12C6 13.6627 6 13.8072 6 14.4578C6 15.1084 6.14458 15.5422 6.28916 15.9036C6.43374 16.2651 6.6506 16.6265 7.01205 16.988C7.37349 17.3494 7.66265 17.494 8.09639 17.7108C8.45783 17.8554 8.89157 17.9277 9.54217 18C10.1928 18 10.4096 18 12 18C13.5904 18 13.8072 18 14.4578 18C15.1084 18 15.5422 17.8554 15.9036 17.7108C16.2651 17.5663 16.6265 17.3494 16.988 16.988C17.3494 16.6265 17.494 16.3374 17.7108 15.9036C17.8554 15.5422 17.9277 15.1084 18 14.4578C18 13.8072 18 13.5904 18 12C18 10.4096 18 10.1928 18 9.54217C18 8.89157 17.8554 8.45783 17.7108 8.09639C17.5663 7.73494 17.3494 7.37349 16.988 7.01205C16.6265 6.6506 16.3374 6.50602 15.9036 6.28916C15.5422 6.14458 15.1084 6.07229 14.4578 6C13.8072 6 13.6627 6 12 6Z" fill="white"/>
<path d="M12 8.89157C10.2651 8.89157 8.89157 10.2651 8.89157 12C8.89157 13.7349 10.2651 15.1084 12 15.1084C13.7349 15.1084 15.1084 13.7349 15.1084 12C15.1084 10.2651 13.7349 8.89157 12 8.89157ZM12 14.0241C10.9157 14.0241 9.9759 13.1566 9.9759 12C9.9759 10.9157 10.8434 9.9759 12 9.9759C13.0843 9.9759 14.0241 10.8434 14.0241 12C14.0241 13.0843 13.0843 14.0241 12 14.0241Z" fill="white"/>
<path d="M15.1807 9.54217C15.58 9.54217 15.9036 9.21852 15.9036 8.81928C15.9036 8.42004 15.58 8.09639 15.1807 8.09639C14.7815 8.09639 14.4578 8.42004 14.4578 8.81928C14.4578 9.21852 14.7815 9.54217 15.1807 9.54217Z" fill="white"/>
</svg>
