<svg width="24" height="24" viewBox="0 0 24 24" fill="none" xmlns="http://www.w3.org/2000/svg">
<rect width="24" height="24" rx="12" fill="black"/>
<path fill-rule="evenodd" clip-rule="evenodd" d="M6.75752 16.2341C6.52216 16.1645 6.30741 16.0406 6.1314 15.8729C5.95538 15.7053 5.82327 15.4987 5.74619 15.2707C5.30578 14.0924 5.17528 9.17216 6.02349 8.20084C6.30579 7.88487 6.70436 7.69033 7.13269 7.65946C9.40817 7.42061 16.4385 7.45245 17.2459 7.73907C17.473 7.81099 17.6805 7.93215 17.8528 8.09347C18.0252 8.25479 18.1578 8.45209 18.241 8.67058C18.7221 9.8887 18.7385 14.3153 18.1757 15.4857C18.0264 15.7903 17.7765 16.0371 17.4661 16.1863C16.6179 16.6003 7.88302 16.5924 6.75752 16.2341ZM10.3706 13.9252L14.4485 11.8552L10.3706 9.76928V13.9252Z" fill="white"/>
</svg>
