<svg width="133" height="38" viewBox="0 0 133 38" fill="none" xmlns="http://www.w3.org/2000/svg">
<path d="M12.1598 0.338839V3.3788H7.61889V14.861H4.57894V3.3788H0V0.338839H12.1598ZM14.5253 0.338839V14.861H25.6718V11.8558H17.5653V9.11988H24.3197V6.07992H17.5653V3.34396H25.6718V0.338839H14.5253ZM35.0165 3.03997C35.6886 3.0392 36.3534 3.17977 36.9676 3.45253C37.5819 3.7253 38.132 4.12418 38.5821 4.62328L40.9128 2.66947C40.1775 1.82934 39.2709 1.15641 38.2538 0.695951C37.2368 0.235495 36.1329 -0.00180667 35.0165 1.03563e-05C30.7162 1.03563e-05 27.2488 3.40413 27.2488 7.5999C27.2488 11.7957 30.7321 15.1998 35.0165 15.1998C36.1314 15.2034 37.2341 14.9688 38.251 14.5117C39.2679 14.0546 40.1754 13.3855 40.9128 12.5493L38.5821 10.5924C38.1306 11.0886 37.5799 11.4845 36.9657 11.7545C36.3515 12.0245 35.6874 12.1626 35.0165 12.1598C32.4104 12.1598 30.2887 10.1142 30.2887 7.5999C30.2887 5.08561 32.4104 3.03997 35.0165 3.03997ZM52.6039 6.07992H46.524V0.338839H43.4841V14.861H46.524V9.11988H52.6039V14.861H55.6439V0.338839H52.6039V6.07992ZM58.3038 9.79437H61.5116V0.338839H58.3007L58.3038 9.79437ZM58.3038 14.861H61.5116V11.6532H58.3007L58.3038 14.861ZM63.8391 0.338839V3.3788H68.418V14.861H71.458V3.3788H75.9989V0.338839H63.8391ZM67.9557 23.053H79.3555V25.9283H71.1382V28.9619H78.3992V31.8372H71.1382V34.8708H79.3492V37.7461H67.9494L67.9557 23.053ZM35.6055 34.8329H43.7722V37.7493H32.3724V23.053H35.6055V34.8329ZM46.5113 23.053H49.7445V37.7461H46.5113V23.053ZM85.3215 23.053H82.0883V37.7461H93.4882V34.8329H85.3215V23.053ZM96.2273 23.053H99.4604V37.7461H96.2273V23.053ZM132.998 23.053V37.7461H130.009L129.765 37.4295L122.903 28.4141V37.7461H119.67V23.053H122.783L122.903 23.2113L129.765 32.2299V23.0467L132.998 23.053ZM117.418 30.3584V30.3996C117.426 31.4136 117.224 32.4183 116.826 33.3509C116.441 34.2638 115.878 35.0916 115.172 35.7866C114.465 36.4817 113.629 37.0303 112.71 37.401C111.704 37.8083 110.628 38.0118 109.543 37.9995C108.465 38.0115 107.396 37.808 106.398 37.401C105.477 37.0248 104.636 36.4767 103.919 35.786C103.221 35.1053 102.668 34.2911 102.291 33.392C101.902 32.4573 101.704 31.4535 101.712 30.4407V30.3996C101.705 29.3869 101.905 28.3835 102.301 27.4515C102.687 26.5383 103.249 25.7102 103.955 25.0147C104.662 24.3192 105.498 23.7698 106.417 23.3982C108.442 22.6003 110.694 22.6003 112.719 23.3982C113.641 23.7744 114.482 24.3225 115.199 25.0132C115.903 25.6927 116.464 26.5068 116.848 27.4071C117.235 28.3425 117.429 29.3463 117.418 30.3584ZM114.081 30.3996C114.088 29.7814 113.98 29.1673 113.764 28.5883C113.551 28.0347 113.23 27.5288 112.82 27.1C112.411 26.6711 111.92 26.3278 111.376 26.0898C110.803 25.837 110.182 25.7096 109.556 25.7161C108.927 25.7079 108.304 25.8308 107.725 26.0771C107.19 26.3093 106.709 26.6501 106.313 27.0778C105.917 27.5097 105.605 28.0111 105.392 28.5566C105.173 29.1318 105.066 29.7432 105.075 30.3584V30.3996C105.066 31.0168 105.173 31.6302 105.392 32.2077C105.604 32.7605 105.923 33.266 106.332 33.6953C106.74 34.1245 107.228 34.4691 107.77 34.7094C108.346 34.9648 108.97 35.0922 109.6 35.083C110.224 35.0895 110.843 34.9665 111.418 34.722C111.958 34.4924 112.443 34.1515 112.843 33.7214C113.238 33.2892 113.55 32.7879 113.764 32.2426C113.981 31.667 114.089 31.0559 114.081 30.4407V30.3996ZM59.656 29.2881L65.9101 37.7461H62.0278L57.471 31.4921L55.7705 33.2495V37.7461H52.5406V23.053H55.7705V29.3578L61.7491 23.053H65.6536L59.656 29.2881ZM0 37.7461H6.98873C10.3074 37.7461 12.4892 36.4035 12.4892 33.715V33.6739C12.4892 31.7011 11.4378 30.7131 9.74053 30.0639C10.7887 29.4749 11.669 28.5534 11.669 26.8973V26.853C11.6818 26.3897 11.5991 25.9287 11.4258 25.4988C11.2525 25.069 10.9925 24.6794 10.662 24.3545C9.81653 23.5153 8.49921 23.053 6.8209 23.053H0V37.7461ZM8.45805 27.4388C8.45805 28.5313 7.55556 28.9936 6.12741 28.9936H3.14762V25.8871H6.33324C7.69806 25.8871 8.45171 26.4318 8.45171 27.3976L8.45805 27.4388ZM9.2782 33.2749V33.316C9.2782 34.4085 8.41688 34.8993 6.98873 34.8993H3.14762V31.6662H6.88424C8.54988 31.6662 9.2782 32.2996 9.2782 33.2749ZM18.0909 37.7461H21.3209V31.8911L26.967 23.053H23.2937L19.7281 28.9524L16.2226 23.053H12.4448L18.0909 31.9512V37.7461Z" fill="black"/>
</svg>
