<svg xmlns="http://www.w3.org/2000/svg" viewBox="0 0 324 48"><defs><style>.cls-1{fill:#1a060b;}</style></defs><g id="Layer_2" data-name="Layer 2"><g id="logo_vector"><rect class="cls-1" x="9.6" width="48" height="9.6"/><polygon class="cls-1" points="0 38.4 9.6 38.4 9.6 48 57.6 48 48 38.4 9.6 38.4 9.6 9.6 0 9.6 0 38.4"/><rect class="cls-1" x="57.6" y="9.6" width="9.6" height="28.8"/><polygon class="cls-1" points="86.4 1.07 86.4 10.67 100.86 10.67 100.86 46.93 110.45 46.93 110.45 10.67 124.8 10.67 124.8 1.07 86.4 1.07"/><polygon class="cls-1" points="132.27 1.07 132.27 46.93 167.47 46.93 167.47 37.44 141.87 37.44 141.87 28.8 163.2 28.8 163.2 19.2 141.87 19.2 141.87 10.56 167.47 10.56 167.47 1.07 132.27 1.07"/><path class="cls-1" d="M196.08,9.6a15.14,15.14,0,0,1,11.26,5l7.36-6.17A24.69,24.69,0,0,0,196.08,0c-13.55,0-24.53,10.75-24.53,24s11,24,24.53,24a24.72,24.72,0,0,0,18.62-8.37l-7.36-6.18a15.14,15.14,0,0,1-11.26,4.95c-8.23,0-14.93-6.46-14.93-14.4S187.85,9.6,196.08,9.6Z"/><polygon class="cls-1" points="250.32 19.2 231.12 19.2 231.12 1.07 221.52 1.07 221.52 46.93 231.12 46.93 231.12 28.8 250.32 28.8 250.32 46.93 259.92 46.93 259.92 1.07 250.32 1.07 250.32 19.2"/><rect class="cls-1" x="268.51" y="1.07" width="10.13" height="29.87"/><rect class="cls-1" x="268.51" y="36.8" width="10.13" height="10.13"/><polygon class="cls-1" points="285.6 1.07 285.6 10.67 300.06 10.67 300.06 46.93 309.65 46.93 309.65 10.67 324 10.67 324 1.07 285.6 1.07"/></g></g></svg>